OpenSim_Sub06_CSStiffKnee_LCS.mot
version=1
nRows=44
nColumns=11
inDegrees=no
endheader
time	Bot_Shank	2nd_Bot_Shank	2nd_Top_Shank	Top_Shank	Bot_Thigh	Med_Thigh	Top_Thigh	BNOx	BNOy	BNOZ
35.82000000	10609.23545756	10654.90301104	10672.02764245	11231.47416815	13121.38329698	14136.99065415	14961.33829951	193.17508424	-76.90916762	-149.06066639
35.83000000	10617.46112347	10660.47630264	10677.43435262	11234.04774585	13139.65783352	14145.86386577	14964.54229943	192.90402385	-76.76848931	-149.82433272
35.84000000	10624.28448781	10666.20397194	10683.98783789	11236.42727605	13158.13054149	14151.99509950	14967.46170063	192.64108279	-76.63915721	-150.15105792
35.85000000	10629.87224402	10671.97516901	10691.31393355	11238.52474997	13176.34615963	14155.75017219	14970.06390690	192.38154722	-76.51859692	-150.08222116
35.86000000	10634.39224059	10677.67904148	10699.03740729	11240.25243125	13193.85016779	14157.49819518	14972.31677257	192.12069789	-76.40423508	-149.65970921
35.87000000	10638.01232597	10683.20473695	10706.78302679	11241.52258354	13210.18804583	14157.60827981	14974.18815198	191.85381552	-76.29349831	-148.92540888
35.88000000	10640.90034863	10688.44140303	10714.17555974	11242.24747047	13224.90527360	14156.44953743	14975.64589949	191.57618086	-76.18381324	-147.92120697
35.89000000	10643.22415703	10693.27818735	10720.83977383	11242.33935569	13237.54733094	14154.39107940	14976.65786942	191.28307463	-76.07260651	-146.68899026
35.90000000	10645.15159963	10697.60423750	10726.40043674	11241.71050284	13247.65969771	14151.80201705	14977.19191613	190.96977757	-75.95730474	-145.27064556
35.91000000	10646.85052489	10701.30870112	10730.48231617	11240.27317555	13254.78785377	14149.05146174	14977.21589394	190.63157042	-75.83533457	-143.70805966
35.92000000	10648.48878128	10704.28072580	10732.71017979	11237.93963747	13258.47727895	14146.50852481	14976.69765721	190.26373391	-75.70412262	-142.04311936
35.93000000	10650.23421727	10706.40945916	10732.70879530	11234.62215224	13258.27345313	14144.54231761	14975.60506026	189.86154878	-75.56109552	-140.31771145
35.94000000	10652.25069484	10707.60514674	10730.15859632	11230.26606626	13253.76956802	14143.49636981	14973.91642388	189.42043053	-75.40367247	-138.57113642
35.95000000	10654.64242675	10708.09372161	10725.57294364	11225.31174210	13245.27272644	14143.33143329	14971.76667751	188.93781120	-75.22916142	-136.80399592
35.96000000	10657.46770758	10708.34413369	10720.10638707	11220.58060673	13233.63960138	14143.71359684	14969.41130833	188.41267515	-75.03478472	-134.98710115
35.97000000	10660.78365077	10708.83158416	10714.92997002	11216.90388943	13219.74100267	14144.30136952	14967.10890466	187.84404668	-74.81776248	-133.09049700
35.98000000	10664.64736976	10710.03127418	10711.21473592	11215.11281948	13204.44774015	14144.75326036	14965.11805481	187.23095008	-74.57531483	-131.08422837
35.99000000	10669.11597798	10712.41840493	10710.13172816	11216.03862616	13188.63062366	14144.72777839	14963.69734710	186.57240965	-74.30466190	-128.93834013
36	10674.24658885	10716.46817758	10712.85199018	11220.51253875	13173.16046303	14143.88343266	14963.10536987	185.86744969	-74.00302382	-126.62287719
36.01000000	10680.09631582	10722.65579331	10720.54656538	11229.36578653	13158.90806810	14141.87873221	14963.60071142	185.11509450	-73.66762070	-124.10788443
36.02000000	10686.68745552	10731.35697542	10734.16973087	11243.29895465	13146.68730304	14138.44507020	14965.39108452	184.31434690	-73.29532282	-121.36876394
36.03000000	10693.68286954	10741.92047613	10752.43795179	11261.66390869	13136.72414697	14134.06626751	14968.15898225	183.46398817	-72.87938851	-118.43622342
36.04000000	10700.53337207	10753.08918981	10772.74750433	11283.01684199	13128.89775832	14129.67003698	14971.27704626	182.56266884	-72.41094527	-115.37359791
36.05000000	10706.68703660	10763.59818020	10792.47760141	11305.90366400	13123.08281297	14126.18982868	14974.11391342	181.60903779	-71.88109307	-112.24464417
36.06000000	10711.59193664	10772.18251106	10809.00745599	11328.87028414	13119.15398675	14124.55909270	14976.03822060	180.60174387	-71.28093187	-109.11311894
36.07000000	10714.69614568	10777.57724612	10819.71628098	11350.46261183	13116.98595553	14125.71127911	14976.41860466	179.53943594	-70.60156162	-106.04277898
36.08000000	10715.44773724	10778.51744914	10821.98328934	11369.22655649	13116.45339515	14130.57983798	14974.62370246	178.42076286	-69.83408230	-103.09738104
36.09000000	10713.29478482	10773.73818387	10813.18769399	11383.70802757	13117.43098146	14140.09821939	14970.02215089	177.24437348	-68.96959386	-100.34068186
36.10000000	10707.75810456	10762.13766665	10791.05520812	11392.61588480	13119.83561558	14155.09254651	14962.11192779	176.00897869	-68.00032985	-97.83098344
36.11000000	10699.10947977	10744.29843843	10756.88868002	11396.34122431	13124.02011597	14175.28094072	14951.72627766	174.71392946	-66.93022636	-95.57027493
36.12000000	10688.06372410	10721.79670134	10714.10127578	11396.26757145	13130.59446893	14199.72786182	14940.48618066	173.35895443	-65.77012342	-93.52732392
36.13000000	10675.34137726	10696.22150039	10666.13343701	11393.79127855	13140.17198462	14227.48932112	14930.02279829	171.94378711	-64.53095025	-91.67046863
36.14000000	10661.66297899	10669.16188060	10616.42560533	11390.30869794	13153.36597319	14257.62132994	14921.96729207	170.46816101	-63.22363609	-89.96804727
36.15000000	10647.74906902	10642.20688701	10568.41822235	11387.21618195	13170.78974480	14289.17989960	14917.95082352	168.93180966	-61.85911017	-88.38839806
36.16000000	10634.32018707	10616.94556463	10525.55172968	11385.91008293	13193.05660961	14321.22104142	14919.60455415	167.33446655	-60.44830174	-86.89985920
36.17000000	10622.09687289	10594.96695848	10491.26656895	11387.78675320	13220.77987777	14352.80076672	14928.55964547	165.67586520	-59.00214003	-85.47076892
36.18000000	10611.79966620	10577.86011360	10469.00318176	11394.24254510	13254.57285945	14382.97508682	14946.44725902	163.95573913	-57.53155428	-84.06946543
36.19000000	10604.14910673	10567.21407500	10462.20200973	11406.67381095	13295.04886480	14410.80001303	14974.89855629	162.17382185	-56.04747372	-82.66428694
36.20000000	10599.75608038	10564.35047770	10473.68759755	11426.21181863	13342.50651241	14435.44427606	15015.06984425	160.33439971	-54.56349694	-81.22388656
36.21000000	10598.42106270	10568.61462953	10501.73262684	11452.02869616	13394.91865355	14456.90967337	15064.60795801	158.47540741	-53.11295078	-79.71924474
36.22000000	10599.58130092	10578.46604265	10542.56962066	11482.41847926	13449.21572368	14475.57138538	15119.58677695	156.64986092	-51.73800429	-78.12238504
36.23000000	10602.67232894	10592.36005094	10592.42147870	11515.67106171	13502.32324122	14491.80635375	15176.07276089	154.91084735	-50.48086826	-76.40533592
36.24000000	10607.12968064	10608.75198829	10647.51110066	11550.07633732	13551.16672457	14505.99152016	15230.13236962	153.31145383	-49.38375347	-74.54012588
36.25000000	10612.38888991	10626.09718856	10704.06138622	11583.92419985	13592.67169215	14518.50382627	15277.83206296	151.90476747	-48.48887069	-72.49878339
